<svg width="28" height="23" viewBox="0 0 28 23" fill="none" xmlns="http://www.w3.org/2000/svg">
<path d="M23.7658 3.75251H27.5183V6.25418H26.2675V20.0133H27.5183V22.515H0V20.0133H1.25083V6.25418H0V3.75251H3.7525V1.25085C3.7525 0.900614 3.87341 0.604584 4.11524 0.362755C4.35707 0.120928 4.6531 1.33514e-05 5.00333 1.33514e-05H22.515C22.8652 1.33514e-05 23.1613 0.120928 23.4031 0.362755C23.6449 0.604584 23.7658 0.900614 23.7658 1.25085V3.75251ZM23.7658 6.25418H3.7525V20.0133H7.505V11.2575H10.0067V20.0133H12.5083V11.2575H15.01V20.0133H17.5117V11.2575H20.0133V20.0133H23.7658V6.25418ZM6.25417 2.50168V3.75251H21.2642V2.50168H6.25417Z" fill="#1B5E20"/>
</svg>
